<?xml version="1.0"?>
<svg width="1037.15" height="910.23" xmlns="http://www.w3.org/2000/svg" xmlns:svg="http://www.w3.org/2000/svg" data-name="Layer 1">
 <g class="layer">
  <title>Layer 1</title>
  <circle cx="544.34" cy="454.8" fill="#fcefd4" id="svg_1" r="441.42"/>
  <path d="m592.19,32.27a20.83,20.83 0 0 0 -20.83,20.84l0,405.89a20.83,20.83 0 0 0 20.83,20.84l357.67,0a20.84,20.84 0 0 0 20.84,-20.84l0,-405.89a20.84,20.84 0 0 0 -20.84,-20.84" fill="#039999" id="svg_2" transform="matrix(1 0 0 1 0 0)"/>
  <path d="m949.86,481.06l-357.67,0a22,22 0 0 1 -22,-22l0,-405.95a22,22 0 0 1 22,-22a1.18,1.18 0 0 1 0,2.36a19.68,19.68 0 0 0 -19.66,19.66l0,405.87a19.68,19.68 0 0 0 19.66,19.66l357.67,0a19.68,19.68 0 0 0 19.66,-19.66l0,-405.89a19.68,19.68 0 0 0 -19.66,-19.66a1.18,1.18 0 0 1 0,-2.36a22,22 0 0 1 22,22l0,405.91a22,22 0 0 1 -22,22.06z" id="svg_3"/>
  <path d="m876.68,176.34a105.65,105.65 0 1 1 -105.68,-105.65a105.29,105.29 0 0 1 105.68,105.65z" fill="#fff" id="svg_4"/>
  <circle cx="771.02" cy="150.66" id="svg_5" r="45.08"/>
  <path d="m771,196.92a46.26,46.26 0 1 1 46.26,-46.26a46.31,46.31 0 0 1 -46.26,46.26zm0,-90.15a43.9,43.9 0 1 0 43.9,43.89a43.95,43.95 0 0 0 -43.9,-43.89z" id="svg_6"/>
  <path d="m771,280.82a104.69,104.69 0 0 1 -76.91,-33.82c13,-39.06 43.14,-64.26 76.93,-64.26s63.98,25.26 76.98,64.26a104.66,104.66 0 0 1 -77,33.82z" id="svg_7"/>
  <path d="m771,183.94c16.55,0 32.5,6.17 46.14,17.84c13.1,11.21 23.27,26.73 29.45,45a103.29,103.29 0 0 1 -151.18,0c6.19,-18.23 16.35,-33.75 29.45,-45c13.64,-11.67 29.6,-17.84 46.14,-17.84m0,-2.36c-35.36,0 -65.67,27.18 -78.26,65.73a105.62,105.62 0 0 0 156.52,0c-12.59,-38.55 -42.89,-65.73 -78.26,-65.73z" id="svg_8"/>
  <polygon fill="#f7be1b" id="svg_9" points="499.57 905.31 470.51 886.24 449.81 872.66 470.51 859.07 499.57 840 538.7 876.83 499.57 905.31"/>
  <rect fill="#fff" height="55.52" id="svg_10" rx="26.04" width="60.41" x="887.37" y="844.9"/>
  <path d="m921.75,901.6l-8.34,0a27.25,27.25 0 0 1 -27.22,-27.22l0,-3.44a27.25,27.25 0 0 1 27.22,-27.22l8.34,0a27.25,27.25 0 0 1 27.25,27.22l0,3.44a27.25,27.25 0 0 1 -27.25,27.22zm-8.34,-55.53a24.89,24.89 0 0 0 -24.86,24.87l0,3.44a24.89,24.89 0 0 0 24.86,24.86l8.34,0a24.89,24.89 0 0 0 24.86,-24.86l0,-3.44a24.9,24.9 0 0 0 -24.86,-24.87l-8.34,0z" fill="#342d48" id="svg_11"/>
  <rect fill="#f64f65" height="65.3" id="svg_12" width="388.95" x="499.57" y="840"/>
  <polygon fill="#f64f65" id="svg_13" points="470.51 886.24 449.81 872.66 470.51 859.07 470.51 886.24"/>
  <path d="m911.54,845.21a9,9 0 0 0 -8.95,-9l-42.52,0a9,9 0 0 0 -9,9l0,54.89a9,9 0 0 0 9,8.95l42.52,0a9,9 0 0 0 8.95,-8.95" fill="#f7be1b" id="svg_14"/>
  <path d="m902.59,910.23l-42.52,0a10.13,10.13 0 0 1 -10.07,-10.13l0,-54.89a10.13,10.13 0 0 1 10.12,-10.12l42.52,0a10.13,10.13 0 0 1 10.12,10.12l-2.35,0a7.78,7.78 0 0 0 -7.77,-7.77l-42.57,0a7.78,7.78 0 0 0 -7.77,7.77l0,54.89a7.78,7.78 0 0 0 7.77,7.77l42.52,0a7.78,7.78 0 0 0 7.77,-7.77l2.35,0a10.13,10.13 0 0 1 -10.12,10.13z" fill="#ba890f" id="svg_15"/>
  <path d="m219,78.61l0,-26.45a15.56,15.56 0 1 1 31.11,0l0,26.45a15.56,15.56 0 0 1 -31.11,0zm23.39,-26.45a7.84,7.84 0 1 0 -15.68,0l0,26.45a7.84,7.84 0 1 0 15.68,0l0,-26.45z" fill="#f7be1b" id="svg_16"/>
  <path d="m234.55,95.34a16.75,16.75 0 0 1 -16.73,-16.73l0,-26.45a16.74,16.74 0 0 1 33.47,0l0,26.45a16.75,16.75 0 0 1 -16.74,16.73zm0,-57.56a14.39,14.39 0 0 0 -14.37,14.38l0,26.45a14.38,14.38 0 1 0 28.75,0l0,-26.45a14.4,14.4 0 0 0 -14.38,-14.38zm0,49.85a9,9 0 0 1 -9,-9l0,-26.47a9,9 0 1 1 18,0l0,26.45a9,9 0 0 1 -9,9.02zm0,-42.13a6.66,6.66 0 0 0 -6.66,6.66l0,26.45a6.67,6.67 0 0 0 13.33,0l0,-26.45a6.67,6.67 0 0 0 -6.67,-6.66z" fill="#ba890f" id="svg_17"/>
  <path d="m219,146.55l0,-26.45a15.56,15.56 0 0 1 31.11,0l0,26.45a15.56,15.56 0 1 1 -31.11,0zm23.39,-26.45a7.84,7.84 0 1 0 -15.68,0l0,26.45a7.84,7.84 0 1 0 15.68,0l0,-26.45z" fill="#f7be1b" id="svg_18"/>
  <path d="m234.55,163.28a16.75,16.75 0 0 1 -16.73,-16.73l0,-26.45a16.74,16.74 0 0 1 33.47,0l0,26.45a16.75,16.75 0 0 1 -16.74,16.73zm0,-57.56a14.39,14.39 0 0 0 -14.37,14.38l0,26.45a14.38,14.38 0 1 0 28.75,0l0,-26.45a14.4,14.4 0 0 0 -14.38,-14.38zm0,49.85a9,9 0 0 1 -9,-9l0,-26.47a9,9 0 1 1 18,0l0,26.45a9,9 0 0 1 -9,9.02zm0,-42.13a6.67,6.67 0 0 0 -6.66,6.66l0,26.45a6.67,6.67 0 0 0 13.33,0l0,-26.45a6.67,6.67 0 0 0 -6.67,-6.66z" fill="#ba890f" id="svg_19"/>
  <path d="m239.06,114.27l0,-30.33a4.5,4.5 0 0 0 -4.51,-4.5l0,0a4.5,4.5 0 0 0 -4.5,4.5l0,30.33a4.51,4.51 0 0 0 4.5,4.5l0,0a4.51,4.51 0 0 0 4.51,-4.5z" fill="#f7be1b" id="svg_20"/>
  <path d="m234.55,120a5.69,5.69 0 0 1 -5.68,-5.68l0,-30.38a5.68,5.68 0 1 1 11.36,0l0,30.33a5.68,5.68 0 0 1 -5.68,5.73zm0,-39.34a3.33,3.33 0 0 0 -3.32,3.33l0,30.33a3.33,3.33 0 0 0 6.65,0l0,-30.38a3.34,3.34 0 0 0 -3.33,-3.33l0,0.05z" fill="#ba890f" id="svg_21"/>
  <path d="m350.92,131.93c2,-25 -1.5,-52.42 4.8,-76.85c13.85,-53.68 76.66,-61.74 122,-48c29.64,8.93 53.59,30.24 82.18,41c1.59,9.72 -17.94,24.11 -24.61,29.1c-20.56,15.35 -46.4,24.82 -72.13,24.82a128.93,128.93 0 0 1 -61.73,-16c-10.09,-5.72 -24.16,-13.81 -30,-24.06c-9.27,23.31 -6.3,45.5 -5.19,70l-15.32,-0.01z" fill="#45a77b" id="svg_22"/>
  <path d="m349.64,133.11l0.1,-1.27c0.72,-9 0.73,-18.43 0.74,-27.59c0,-16.56 0,-33.68 4.1,-49.46c4.89,-18.94 15.93,-33.37 32.83,-42.88c28.46,-16 65.5,-13.6 90.68,-6c16.22,4.89 30.92,13.56 45.14,21.93c11.87,7 24.14,14.23 37.12,19.13l0.63,0.24l0.11,0.67c1.49,9.1 -12.43,20.8 -24.72,30l-0.35,0.25c-21.63,16.15 -47.5,25.06 -72.86,25.09a130.46,130.46 0 0 1 -62.31,-16.22c-9.07,-5.13 -22.48,-12.73 -29.2,-22.47c-7,19 -5.92,37.6 -4.81,57.2c0.19,3.35 0.38,6.73 0.54,10.16l0.05,1.23l-17.79,-0.01zm88.05,-130.76c-16.75,0 -34.17,3.2 -49.13,11.62c-16.31,9.18 -27,23.11 -31.7,41.41c-4,15.49 -4,32.46 -4,48.87c0,8.78 0,17.84 -0.64,26.5l12.78,0c-0.15,-3 -0.32,-6 -0.48,-8.9c-1.17,-20.61 -2.27,-40.08 5.8,-60.38l0.9,-2.27l1.22,2.12c5.83,10.16 20.14,18.26 29.6,23.62a127.46,127.46 0 0 0 61,15.92l0.12,0c24.85,0 50.23,-8.77 71.45,-24.62l0.39,-0.24c6.09,-4.55 24.34,-18.17 23.88,-27c-12.92,-5 -25.06,-12.12 -36.8,-19c-14.1,-8.3 -28.68,-16.89 -44.63,-21.7a140.13,140.13 0 0 0 -39.76,-5.95z" fill="#2d7a55" id="svg_23"/>
  <path d="m210.29,277c-2,-25 1.5,-52.42 -4.81,-76.85c-13.85,-53.69 -76.66,-61.74 -122,-48.06c-29.63,8.94 -53.59,30.24 -82.18,41c-1.59,9.72 17.94,24.11 24.62,29.1c20.55,15.37 46.4,24.81 72.08,24.81a129,129 0 0 0 61.77,-16c10.09,-5.71 24.16,-13.8 30,-24.06c9.27,23.32 6.29,45.5 5.18,70l15.34,0.06z" fill="#45a77b" id="svg_24"/>
  <path d="m211.56,278.14l-17.79,0l0.06,-1.23c0.15,-3.42 0.34,-6.8 0.53,-10.15c1.11,-19.6 2.16,-38.15 -4.8,-57.2c-6.73,9.74 -20.14,17.33 -29.21,22.47a129.91,129.91 0 0 1 -62.19,16.22l-0.16,0c-25.35,0 -51.23,-8.94 -72.86,-25.09l-0.34,-0.26c-12.26,-9.2 -26.18,-20.9 -24.69,-30l0.11,-0.67l0.64,-0.23c13,-4.9 25.24,-12.13 37.11,-19.13c14.22,-8.38 28.92,-17 45.14,-21.93c25.18,-7.6 62.23,-10 90.69,6c16.89,9.51 27.94,23.93 32.82,42.87c4.08,15.78 4.09,32.91 4.11,49.47c0,9.16 0,18.63 0.73,27.58l0.1,1.28zm-15.32,-2.38l12.78,0c-0.63,-8.66 -0.64,-17.72 -0.65,-26.5c0,-16.41 0,-33.38 -4,-48.88c-4.72,-18.29 -15.38,-32.22 -31.7,-41.41c-27.81,-15.65 -64.13,-13.26 -88.85,-5.81c-16,4.81 -30.53,13.4 -44.62,21.71c-11.75,6.92 -23.89,14.08 -36.8,19c-0.47,8.89 17.78,22.5 23.87,27l0.35,0.26c21.23,15.85 46.6,24.6 71.45,24.62a127.41,127.41 0 0 0 61.12,-15.75c9.47,-5.36 23.77,-13.47 29.61,-23.62l1.21,-2.12l0.9,2.27c8.07,20.3 7,39.77 5.81,60.38c-0.17,2.89 -0.34,5.85 -0.48,8.85z" fill="#2d7a55" id="svg_25"/>
  <path d="m318.77,411.06c-2.38,-29.63 1.78,-62.13 -5.69,-91.09c-16.42,-63.62 -90.86,-73.17 -144.64,-57c-35.12,10.59 -63.52,35.84 -97.4,48.64c-1.89,11.52 21.26,28.57 29.17,34.48c24.4,18.22 55,29.43 85.52,29.46c24.79,0 51.61,-6.84 73.17,-19c12,-6.77 28.63,-16.37 35.61,-28.52c11,27.63 7.46,53.93 6.15,83l18.11,0.03z" fill="#45a77b" id="svg_26"/>
  <path d="m320.05,412.24l-20.63,0l0.06,-1.23c0.18,-4.06 0.41,-8.07 0.64,-12c1.32,-23.39 2.57,-45.52 -5.86,-68.28c-7.86,11.67 -23.94,20.77 -34.78,26.91c-21.55,12.2 -48.37,19.2 -73.6,19.2l-0.15,0c-30,0 -60.63,-10.58 -86.22,-29.69l-0.41,-0.31c-8.53,-6.36 -31.19,-23.28 -29.23,-35.31l0.11,-0.68l0.64,-0.24c15.4,-5.81 29.95,-14.39 44,-22.68c16.84,-9.93 34.25,-20.19 53.45,-26c29.8,-9 73.64,-11.84 107.31,7.11c20,11.24 33,28.29 38.81,50.68c4.82,18.68 4.84,39 4.85,58.57c0,10.87 0,22.1 0.88,32.72l0.13,1.23zm-18.16,-2.38l15.61,0c-0.76,-10.33 -0.77,-21.15 -0.78,-31.63c0,-19.46 0,-39.59 -4.78,-58c-5.61,-21.74 -18.29,-38.3 -37.68,-49.22c-33,-18.59 -76.15,-15.75 -105.48,-6.9c-18.93,5.7 -36.22,15.89 -52.94,25.75c-14,8.22 -28.38,16.72 -43.72,22.6c-0.74,10.65 21.11,27 28.39,32.39l0.41,0.31c25.19,18.81 55.31,29.19 84.81,29.22l0.15,0c24.84,0 51.23,-6.88 72.44,-18.89c11.24,-6.36 28.23,-16 35.17,-28.08l1.21,-2.11l0.9,2.27c9.55,24 8.25,47.06 6.87,71.47c-0.2,3.6 -0.41,7.19 -0.58,10.82z" fill="#2d7a55" id="svg_27"/>
  <path d="m879.26,163.19l-281.66,0l0,-23.06a31.83,31.83 0 0 0 -31.83,-31.82l-265.27,0a31.83,31.83 0 0 0 -31.83,31.82l0,634.31a31.83,31.83 0 0 0 31.83,31.83l578.76,0a31.83,31.83 0 0 0 31.83,-31.83l0,-579.44a31.83,31.83 0 0 0 -31.83,-31.81z" fill="#fff" id="svg_28"/>
  <path d="m879.26,807.45l-578.76,0a33,33 0 0 1 -33,-33l0,-634.32a33,33 0 0 1 33,-33l265.27,0a33,33 0 0 1 33,33l0,21.87l280.49,0a33,33 0 0 1 33,33l0,579.44a33,33 0 0 1 -33,33.01zm-578.76,-698a30.69,30.69 0 0 0 -30.65,30.65l0,634.34a30.69,30.69 0 0 0 30.65,30.65l578.76,0a30.69,30.69 0 0 0 30.65,-30.65l0,-579.44a30.69,30.69 0 0 0 -30.65,-30.65l-282.84,0l0,-24.22a30.69,30.69 0 0 0 -30.65,-30.65l-265.27,-0.03z" fill="#342d48" id="svg_29"/>
  <line fill="#342d48" id="svg_30" x1="540.83" x2="571.36" y1="126.41" y2="156.94"/>
  <rect fill="#342d48" height="43.17" id="svg_31" transform="rotate(-45 556.086 141.681)" width="2.36" x="554.91" y="120.09"/>
  <line fill="#342d48" id="svg_32" x1="571.36" x2="540.83" y1="126.41" y2="156.94"/>
  <rect fill="#342d48" height="2.36" id="svg_33" transform="rotate(-45 556.086 141.681)" width="43.17" x="534.51" y="140.5"/>
  <polygon fill="#342d48" id="svg_34" points="133.41 863.21 120.69 869.9 123.12 855.72 112.82 845.69 127.05 843.62 133.41 830.72 139.78 843.62 154.01 845.69 143.71 855.72 146.14 869.9 133.41 863.21"/>
  <path d="m147.71,872.05l-14.3,-7.51l-14.29,7.51l2.73,-15.92l-11.56,-11.27l16,-2.32l7.14,-14.48l7.15,14.48l16,2.32l-11.58,11.27l2.71,15.92zm-14.3,-10.17l11.17,5.86l-2.13,-12.43l9,-8.8l-12.45,-1.82l-5.59,-11.31l-5.58,11.31l-12.48,1.82l9,8.8l-2.13,12.43l11.19,-5.86z" fill="#342d48" id="svg_35"/>
  <polygon fill="#342d48" id="svg_36" points="191.76 863.21 179.03 869.9 181.46 855.72 171.16 845.69 185.4 843.62 191.76 830.72 198.13 843.62 212.36 845.69 202.06 855.72 204.49 869.9 191.76 863.21"/>
  <path d="m206.05,872.05l-14.29,-7.51l-14.29,7.51l2.73,-15.92l-11.57,-11.27l16,-2.32l7.15,-14.48l7.15,14.48l16,2.32l-11.57,11.27l2.69,15.92zm-32.35,-25.54l9,8.8l-2.13,12.43l11.16,-5.86l11.17,5.86l-2.14,-12.43l9,-8.8l-12.49,-1.82l-5.58,-11.31l-5.58,11.31l-12.41,1.82z" fill="#342d48" id="svg_37"/>
  <polygon fill="#342d48" id="svg_38" points="250.11 863.21 237.38 869.9 239.81 855.72 229.51 845.69 243.74 843.62 250.11 830.72 256.47 843.62 270.7 845.69 260.41 855.72 262.84 869.9 250.11 863.21"/>
  <path d="m264.4,872.05l-14.29,-7.51l-14.3,7.51l2.73,-15.91l-11.54,-11.28l16,-2.32l7.15,-14.48l7.14,14.48l16,2.32l-11.57,11.28l2.68,15.91zm-14.29,-10.17l11.16,5.86l-2.13,-12.43l9,-8.8l-12.48,-1.82l-5.58,-11.31l-5.58,11.31l-12.5,1.82l9,8.8l-2.14,12.43l11.25,-5.86z" fill="#342d48" id="svg_39"/>
  <polygon fill="#fff" id="svg_40" points="308.45 863.21 295.73 869.9 298.16 855.72 287.86 845.69 302.09 843.62 308.45 830.72 314.82 843.62 329.05 845.69 318.75 855.72 321.18 869.9 308.45 863.21"/>
  <path d="m322.75,872.05l-14.29,-7.51l-14.3,7.51l2.73,-15.92l-11.56,-11.27l16,-2.32l7.15,-14.48l7.14,14.48l16,2.32l-11.62,11.27l2.75,15.92zm-14.29,-10.17l11.16,5.86l-2.13,-12.43l9,-8.8l-12.49,-1.82l-5.58,-11.31l-5.59,11.31l-12.48,1.82l9,8.8l-2.13,12.43l11.24,-5.86z" fill="#342d48" id="svg_41"/>
  <polygon fill="#fff" id="svg_42" points="366.8 863.21 354.07 869.9 356.5 855.72 346.21 845.69 360.44 843.62 366.8 830.72 373.17 843.62 387.4 845.69 377.1 855.72 379.53 869.9 366.8 863.21"/>
  <path d="m381.1,872.05l-14.3,-7.51l-14.29,7.51l2.73,-15.92l-11.56,-11.27l16,-2.32l7.14,-14.48l7.18,14.48l16,2.32l-11.56,11.27l2.66,15.92zm-32.36,-25.54l9,8.8l-2.13,12.43l11.16,-5.86l11.23,5.86l-2.14,-12.43l9,-8.8l-12.49,-1.82l-5.58,-11.31l-5.58,11.31l-12.47,1.82z" fill="#342d48" id="svg_43"/>
  <path d="m475.83,342.45a78.53,78.53 0 1 1 -78.53,-78.53a78.25,78.25 0 0 1 78.53,78.53z" fill="#d0bee5" id="svg_44" transform="matrix(1 0 0 1 0 0)"/>
  <circle cx="397.3" cy="323.37" fill="#f7f2f4" id="svg_45" r="33.51" transform="matrix(1 0 0 1 0 0) matrix(0.973259 -0.22971 0.22971 0.973259 -63.6572 99.911)"/>
  <path d="m455.47,395.2a78.51,78.51 0 0 1 -116.35,0c9.36,-28.65 31.89,-48.85 58.18,-48.85s48.81,20.2 58.17,48.85z" fill="#b290ce" id="svg_46" transform="matrix(1 0 0 1 0 0)"/>
  <polyline fill="#fff" id="svg_47" points="534.41 293.33 534.41 263.92 841.18 263.92 841.18 293.33" transform="matrix(1 0 0 1 0 0)"/>
  <polygon fill="#342d48" id="svg_48" points="842.36 293.33 840.01 293.33 840.01 265.1 535.59 265.1 535.59 293.33 533.23 293.33 533.23 262.74 842.36 262.74 842.36 293.33"/>
  <polyline fill="#fff" id="svg_49" points="841.18 357.16 534.41 357.16 534.41 327.75 841.18 327.75"/>
  <polygon fill="#342d48" id="svg_50" points="841.18 358.34 533.23 358.34 533.23 326.57 841.18 326.57 841.18 328.93 535.59 328.93 535.59 355.98 841.18 355.98 841.18 358.34"/>
  <polyline fill="#fff" id="svg_51" points="841.18 391.57 841.18 420.99 534.41 420.99 534.41 391.57"/>
  <polygon fill="#342d48" id="svg_52" points="842.36 422.17 533.23 422.17 533.23 391.57 535.59 391.57 535.59 419.81 840.01 419.81 840.01 391.57 842.36 391.57 842.36 422.17"/>
  <rect fill="#342d48" height="2.36" id="svg_53" width="522.41" x="318.77" y="510.65"/>
  <rect fill="#342d48" height="2.36" id="svg_54" width="522.41" x="318.77" y="535.32"/>
  <rect fill="#342d48" height="2.36" id="svg_55" width="522.41" x="318.77" y="560"/>
  <rect fill="#342d48" height="2.36" id="svg_56" width="522.41" x="318.77" y="584.68"/>
  <rect fill="#342d48" height="2.36" id="svg_57" width="522.41" x="318.77" y="609.35"/>
  <rect fill="#342d48" height="2.36" id="svg_58" width="522.41" x="318.77" y="634.03"/>
  <rect fill="#342d48" height="2.36" id="svg_59" width="522.41" x="318.77" y="658.7"/>
  <path d="m553.4,271.36l0,5.57l5.42,-1.73l0.59,1.66l-5.41,1.69l3.47,4.68l-1.47,1.07l-3.5,-4.79l-3.5,4.79l-1.41,-1.07l3.47,-4.68l-5.45,-1.69l0.58,-1.66l5.42,1.73l0,-5.57l1.79,0z" fill="#342d48" id="svg_60"/>
  <path d="m578,271.36l0,5.57l5.42,-1.73l0.59,1.66l-5.46,1.69l3.47,4.68l-1.4,1.07l-3.5,-4.79l-3.5,4.79l-1.41,-1.07l3.47,-4.68l-5.45,-1.69l0.58,-1.66l5.42,1.73l0,-5.57l1.77,0z" fill="#342d48" id="svg_61"/>
  <path d="m602.64,271.36l0,5.57l5.42,-1.73l0.59,1.66l-5.46,1.69l3.47,4.68l-1.4,1.07l-3.5,-4.79l-3.51,4.79l-1.4,-1.07l3.47,-4.68l-5.46,-1.69l0.59,-1.66l5.42,1.73l0,-5.57l1.77,0z" fill="#342d48" id="svg_62"/>
  <path d="m627.26,271.36l0,5.57l5.42,-1.73l0.59,1.66l-5.46,1.69l3.47,4.68l-1.4,1.07l-3.5,-4.79l-3.51,4.79l-1.39,-1.07l3.46,-4.68l-5.46,-1.69l0.59,-1.66l5.42,1.73l0,-5.57l1.77,0z" fill="#342d48" id="svg_63"/>
  <path d="m651.88,271.36l0,5.57l5.42,-1.73l0.59,1.66l-5.46,1.69l3.47,4.68l-1.4,1.07l-3.5,-4.79l-3.5,4.79l-1.4,-1.07l3.46,-4.68l-5.46,-1.69l0.59,-1.66l5.42,1.73l0,-5.57l1.77,0z" fill="#342d48" id="svg_64"/>
  <path d="m676.5,271.36l0,5.57l5.42,-1.73l0.59,1.66l-5.46,1.69l3.47,4.68l-1.4,1.07l-3.5,-4.79l-3.5,4.79l-1.4,-1.07l3.46,-4.68l-5.45,-1.69l0.58,-1.66l5.42,1.73l0,-5.57l1.77,0z" fill="#342d48" id="svg_65"/>
  <path d="m553.4,336.08l0,5.56l5.42,-1.73l0.59,1.66l-5.41,1.69l3.47,4.68l-1.47,1.06l-3.5,-4.79l-3.5,4.79l-1.41,-1.07l3.47,-4.68l-5.45,-1.69l0.58,-1.66l5.42,1.73l0,-5.56l1.79,0.01z" fill="#342d48" id="svg_66"/>
  <path d="m578,336.08l0,5.56l5.42,-1.73l0.59,1.66l-5.46,1.69l3.47,4.68l-1.4,1.07l-3.5,-4.79l-3.5,4.79l-1.41,-1.07l3.47,-4.68l-5.45,-1.69l0.58,-1.66l5.42,1.73l0,-5.56l1.77,0z" fill="#342d48" id="svg_67"/>
  <path d="m602.64,336.08l0,5.56l5.42,-1.73l0.59,1.66l-5.46,1.69l3.47,4.68l-1.4,1.07l-3.5,-4.79l-3.51,4.78l-1.4,-1.07l3.47,-4.68l-5.46,-1.69l0.59,-1.66l5.42,1.73l0,-5.56l1.77,0.01z" fill="#342d48" id="svg_68"/>
  <path d="m627.26,336.08l0,5.56l5.42,-1.73l0.59,1.66l-5.46,1.69l3.47,4.68l-1.4,1.07l-3.5,-4.79l-3.51,4.78l-1.39,-1.07l3.46,-4.68l-5.46,-1.69l0.59,-1.66l5.42,1.73l0,-5.56l1.77,0.01z" fill="#342d48" id="svg_69"/>
  <path d="m553.4,399l0,5.56l5.42,-1.73l0.59,1.66l-5.41,1.73l3.47,4.68l-1.47,1.1l-3.5,-4.79l-3.5,4.79l-1.41,-1.07l3.47,-4.68l-5.45,-1.69l0.58,-1.66l5.42,1.73l0,-5.63l1.79,0z" fill="#342d48" id="svg_70"/>
  <path d="m578,399l0,5.56l5.42,-1.73l0.59,1.66l-5.46,1.69l3.45,4.72l-1.4,1.07l-3.5,-4.79l-3.5,4.79l-1.41,-1.07l3.47,-4.68l-5.45,-1.69l0.58,-1.66l5.42,1.73l0,-5.6l1.79,0z" fill="#342d48" id="svg_71"/>
  <path d="m472.39,706.26a21.38,21.38 0 0 0 -21.39,21.38l0,22.14a21.38,21.38 0 0 0 21.38,21.38l235,0a21.38,21.38 0 0 0 21.38,-21.38l0,-22.14a21.38,21.38 0 0 0 -21.38,-21.38" fill="#039999" id="svg_72" transform="matrix(1 0 0 1 0 0)"/>
  <path d="m707.37,772.33l-235,0a22.58,22.58 0 0 1 -22.56,-22.55l0,-22.14a22.58,22.58 0 0 1 22.56,-22.55l0,2.35a20.22,20.22 0 0 0 -20.2,20.2l0,22.14a20.23,20.23 0 0 0 20.2,20.2l235,0a20.23,20.23 0 0 0 20.2,-20.2l0,-22.14a20.22,20.22 0 0 0 -20.2,-20.2l0,-2.35a22.58,22.58 0 0 1 22.56,22.55l0,22.14a22.58,22.58 0 0 1 -22.56,22.55z" fill="#026868" id="svg_73" transform="matrix(1 0 0 1 0 0)"/>
  <path d="m512.26,738.83l0,12.5l-2.1,0l0,-26.09l7.51,0q8.7,0 8.7,6.81a5.86,5.86 0 0 1 -2,4.68a8.2,8.2 0 0 1 -4.94,2l7.71,12.64l-2.54,0l-7.44,-12.5l-4.9,-0.04zm0,-11.79l0,10l5.12,0a8.69,8.69 0 0 0 5.1,-1.27a4.26,4.26 0 0 0 1.79,-3.71q0,-5 -6.93,-5l-5.08,-0.02z" fill="#fff" id="svg_74"/>
  <path d="m534.26,738.69l0,10.76l14.29,0l0,1.88l-16.36,0l0,-26.09l15.88,0l0,1.88l-13.81,0l0,9.72l12.93,0l0,1.85l-12.93,0z" fill="#fff" id="svg_75"/>
  <path d="m575.31,727.93l-1.31,1.43a10.54,10.54 0 0 0 -7.78,-2.94a10.66,10.66 0 0 0 -8.25,3.42a12.89,12.89 0 0 0 0,16.84a10.68,10.68 0 0 0 8.33,3.47a14.48,14.48 0 0 0 7.48,-1.77l0,-8.63l-6.27,0l0,-1.84l8.37,0l0,11.65a18.44,18.44 0 0 1 -9.62,2.47a13.15,13.15 0 0 1 -9.8,-3.91a14.55,14.55 0 0 1 0,-19.7a13.13,13.13 0 0 1 9.74,-3.88a12.47,12.47 0 0 1 9.11,3.39z" fill="#fff" id="svg_76"/>
  <path d="m585,725.24l0,26.09l-2.1,0l0,-26.09l2.1,0z" fill="#fff" id="svg_77"/>
  <path d="m606.63,727.63l-1.51,1.37a7.09,7.09 0 0 0 -5.75,-2.65a6.83,6.83 0 0 0 -4.2,1.38a4.57,4.57 0 0 0 -1.84,3.89a4.45,4.45 0 0 0 0.75,2.62a5,5 0 0 0 2,1.65a20.62,20.62 0 0 0 2.67,1.07c1,0.32 1.94,0.67 2.91,1a14.81,14.81 0 0 1 2.68,1.3a5.76,5.76 0 0 1 2,2.12a6.64,6.64 0 0 1 0.75,3.25a6.49,6.49 0 0 1 -2.47,5.45a9.22,9.22 0 0 1 -5.85,1.92a9.4,9.4 0 0 1 -7.89,-3.76l1.47,-1.29a8.23,8.23 0 0 0 6.42,3.2a6.81,6.81 0 0 0 4.32,-1.45a4.74,4.74 0 0 0 1.87,-4a4.54,4.54 0 0 0 -0.76,-2.64a5.38,5.38 0 0 0 -1.95,-1.71a19.88,19.88 0 0 0 -2.66,-1.13c-1,-0.33 -1.94,-0.68 -2.92,-1a14.19,14.19 0 0 1 -2.68,-1.3a5.81,5.81 0 0 1 -1.95,-2.1a6.56,6.56 0 0 1 -0.75,-3.23a6.15,6.15 0 0 1 2.46,-5.23a9.42,9.42 0 0 1 5.79,-1.84c3.13,0.02 5.52,1.05 7.09,3.11z" fill="#fff" id="svg_78"/>
  <path d="m620.12,727.12l0,24.21l-2.12,0l0,-24.21l-8.77,0l0,-1.88l19.65,0l0,1.88l-8.76,0z" fill="#fff" id="svg_79"/>
  <path d="m635.08,738.69l0,10.76l14.29,0l0,1.88l-16.37,0l0,-26.09l15.88,0l0,1.88l-13.8,0l0,9.72l12.92,0l0,1.85l-12.92,0z" fill="#fff" id="svg_80"/>
  <path d="m656.89,738.83l0,12.5l-2.1,0l0,-26.09l7.52,0q8.69,0 8.69,6.81a5.86,5.86 0 0 1 -2,4.68a8.2,8.2 0 0 1 -4.93,2l7.7,12.64l-2.55,0l-7.44,-12.5l-4.89,-0.04zm0,-11.79l0,10l5.11,0a8.75,8.75 0 0 0 5.11,-1.27a4.27,4.27 0 0 0 1.78,-3.71q0,-5 -6.93,-5l-5.07,-0.02z" fill="#fff" id="svg_81"/>
  <path d="m397.3,459.51a20.84,20.84 0 0 0 -20.83,-20.84l-252.72,0a20.83,20.83 0 0 0 -20.83,20.84l0,288.29a20.83,20.83 0 0 0 20.83,20.84l252.72,0a20.84,20.84 0 0 0 20.83,-20.84" fill="#039999" id="svg_82"/>
  <path d="m376.47,769.81l-252.72,0a22,22 0 0 1 -22,-22l0,-288.3a22,22 0 0 1 22,-22l252.72,0a22,22 0 0 1 22,22a1.18,1.18 0 1 1 -2.36,0a19.68,19.68 0 0 0 -19.65,-19.66l-252.71,0a19.68,19.68 0 0 0 -19.66,19.66l0,288.29a19.68,19.68 0 0 0 19.66,19.66l252.72,0a19.68,19.68 0 0 0 19.65,-19.66a1.18,1.18 0 0 1 2.36,0a22,22 0 0 1 -22.01,22.01z" id="svg_83"/>
  <line fill="#342d48" id="svg_84" x1="921.26" x2="951.79" y1="51.28" y2="81.81"/>
  <rect fill="#ffffff" height="43.17" id="svg_85" transform="matrix(1 0 0 1 0 0) rotate(-45 936.53 66.545)" width="2.36" x="935.35" y="44.96"/>
  <line fill="#342d48" id="svg_86" x1="951.79" x2="921.26" y1="51.28" y2="81.81"/>
  <rect fill="#ffffff" height="2.36" id="svg_87" transform="matrix(1 0 0 1 0 0) rotate(-45 936.525 66.55)" width="43.17" x="914.94" y="65.37"/>
  <line fill="#342d48" id="svg_88" x1="348.53" x2="379.05" y1="457.29" y2="487.82"/>
  <rect fill="#ffffff" height="43.17" id="svg_89" transform="matrix(1 0 0 1 0 0) matrix(0.707107 -0.707107 0.707107 0.707107 -227.59 395.65)" width="2.36" x="362.61" y="450.97"/>
  <line fill="#342d48" id="svg_90" x1="379.05" x2="348.53" y1="457.29" y2="487.82"/>
  <rect fill="#ffffff" height="2.36" id="svg_91" transform="matrix(1 0 0 1 0 0) rotate(-45 363.785 472.55)" width="43.17" x="342.2" y="471.37"/>
  <path d="m311.35,603.65a61.24,61.24 0 1 1 -61.25,-61.24a61.05,61.05 0 0 1 61.25,61.24z" fill="#fff" id="svg_92"/>
  <circle cx="250.1" cy="588.77" id="svg_93" r="26.13" transform="matrix(1 0 0 1 0 0)"/>
  <path d="m250.1,616.08a27.31,27.31 0 1 1 27.31,-27.31a27.34,27.34 0 0 1 -27.31,27.31zm0,-52.26a25,25 0 1 0 25,24.95a25,25 0 0 0 -25,-24.95z" id="svg_94"/>
  <path d="m250.1,663.72a60.17,60.17 0 0 1 -44,-19.22c7.51,-22.27 24.73,-36.63 44,-36.63s36.52,14.36 44,36.63a60.17,60.17 0 0 1 -44,19.22z" id="svg_95" transform="matrix(1 0 0 1 0 0)"/>
  <path d="m250.1,609.05c18.59,0 35.22,13.75 42.69,35.16a58.87,58.87 0 0 1 -85.37,0c7.47,-21.41 24.1,-35.16 42.68,-35.16m0,-2.36c-20.5,0 -38.06,15.75 -45.36,38.1a61.22,61.22 0 0 0 90.73,0c-7.3,-22.35 -24.87,-38.1 -45.37,-38.1z" id="svg_96"/>
  <circle cx="914.44" cy="624.67" fill="#f7be1b" id="svg_97" r="89.22" transform="rotate(-45 914.44 624.677)"/>
  <path d="m914.45,715.07a90.4,90.4 0 1 1 90.4,-90.4a90.51,90.51 0 0 1 -90.4,90.4zm0,-178.44a88,88 0 1 0 88,88a88.15,88.15 0 0 0 -88,-88z" fill="#ba890f" id="svg_98"/>
  <circle cx="914.44" cy="618.56" fill="#f7be1b" id="svg_99" r="89.22" transform="rotate(-45 914.444 618.555)"/>
  <path d="m914.45,709a90.4,90.4 0 1 1 90.4,-90.4a90.51,90.51 0 0 1 -90.4,90.4zm0,-178.45a88,88 0 1 0 88,88a88.15,88.15 0 0 0 -88,-88.04l0,0.04z" fill="#ba890f" id="svg_100"/>
  <path d="m989,618.56c0,1.25 0,2.49 -0.09,3.73l0,0.11a74.59,74.59 0 0 1 -149,0l0,-0.11c-0.06,-1.24 -0.1,-2.48 -0.1,-3.73a74.59,74.59 0 1 1 149.18,0l0.01,0z" fill="#f7be1b" id="svg_101"/>
  <path d="m914.44,694.33a75.7,75.7 0 0 1 -75.67,-71.87l0,-0.17c-0.07,-1.27 -0.1,-2.51 -0.1,-3.73a75.77,75.77 0 1 1 151.54,0c0,1.21 0,2.45 -0.09,3.79a75.72,75.72 0 0 1 -75.68,71.98zm0,-149.18a73.49,73.49 0 0 0 -73.44,73.41c0,1.18 0,2.39 0.09,3.67l0,0.17a73.42,73.42 0 0 0 146.64,-0.06c0.07,-1.4 0.1,-2.6 0.1,-3.78a73.5,73.5 0 0 0 -73.39,-73.41z" fill="#ba890f" id="svg_102"/>
  <path d="m988.94,622.29l0,0.11a74.59,74.59 0 0 1 -149,0l0,-0.11a74.59,74.59 0 0 1 149,0z" fill="#f7be1b" id="svg_103"/>
  <path d="m914.44,694.33a75.7,75.7 0 0 1 -75.67,-71.87l0,-0.17a75.77,75.77 0 0 1 151.35,-0.06l0,0.17a75.71,75.71 0 0 1 -75.68,71.93zm0,-141.61a73.34,73.34 0 0 0 -73.32,69.63a73.42,73.42 0 0 0 146.64,0a73.34,73.34 0 0 0 -73.32,-69.63z" fill="#ba890f" id="svg_104"/>
  <path d="m911.81,660.72l0,-40.05a75.3,75.3 0 0 1 -9.49,-3.56a45.23,45.23 0 0 1 -7.84,-4.74a18.89,18.89 0 0 1 -5.93,-7.32a23.75,23.75 0 0 1 -2,-10.08q0,-10.8 7.18,-17.39t18.12,-7.25l0,-9.48l5.27,0l0,9.48q15.42,0.27 24.11,10.54l-4.74,4.48a24.22,24.22 0 0 0 -19.37,-9.09l0,38.61q4.88,1.71 8.17,3.1a56,56 0 0 1 7.11,3.68a24.93,24.93 0 0 1 6.13,5a22.75,22.75 0 0 1 3.82,6.59a24,24 0 0 1 1.52,8.76q0,10.93 -7.58,17.72t-19.17,7l0,9.49l-5.27,0l0,-9.49a33.56,33.56 0 0 1 -26.75,-13.44l5.27,-4.08a28.57,28.57 0 0 0 10.15,8.5a27,27 0 0 0 11.29,3.02zm0,-47.7l0,-36.76a19.54,19.54 0 0 0 -12.81,5.34a16.91,16.91 0 0 0 -5.2,12.85q-0.04,13.44 18.01,18.55l0,0.02zm5.27,9l0,38.74a22.08,22.08 0 0 0 13.57,-5.2q5.67,-4.82 5.67,-14q0,-13.39 -19.24,-19.56l0,0.02z" fill="#f7be1b" id="svg_105"/>
  <path d="m918.26,677.45l-7.63,0l0,-9.53a34.73,34.73 0 0 1 -26.49,-13.85l-0.74,-0.93l7.15,-5.54l0.72,0.94a27.57,27.57 0 0 0 9.73,8.16a26.92,26.92 0 0 0 9.64,2.78l0,-38a75.48,75.48 0 0 1 -8.81,-3.35a46.6,46.6 0 0 1 -8,-4.87a20,20 0 0 1 -6.29,-7.76a25,25 0 0 1 -2.21,-10.5c0,-7.51 2.55,-13.65 7.57,-18.26a29.39,29.39 0 0 1 17.73,-7.47l0,-9.57l7.63,0l0,9.52c10,0.42 18,4.1 23.83,10.92l0.72,0.86l-6.46,6.1l-0.8,-1a22.85,22.85 0 0 0 -17.29,-8.65l0,36.55c3,1.06 5.42,2 7.45,2.84a58.43,58.43 0 0 1 7.26,3.76a26.26,26.26 0 0 1 6.42,5.26a24.32,24.32 0 0 1 4,6.92a25.28,25.28 0 0 1 1.61,9.22c0,7.61 -2.69,13.86 -8,18.6c-5,4.47 -11.3,6.92 -18.78,7.31l0.04,9.54zm-5.26,-2.36l2.91,0l0,-9.46l1.15,0c7.41,-0.16 13.6,-2.44 18.42,-6.74s7.18,-9.94 7.18,-16.85a22.74,22.74 0 0 0 -1.44,-8.33a21.79,21.79 0 0 0 -3.61,-6.25a23.87,23.87 0 0 0 -5.85,-4.77a55.06,55.06 0 0 0 -7,-3.61c-2.15,-0.9 -4.8,-1.91 -8.1,-3.07l-0.79,-0.28l0,-40.65l1.18,0a25.33,25.33 0 0 1 19.45,8.58l3,-2.86c-5.49,-6 -13,-9.13 -22.5,-9.29l-1.16,0l0,-9.51l-2.84,0l0,9.41l-1.11,0.07c-7,0.42 -12.83,2.76 -17.39,6.94s-6.8,9.7 -6.8,16.52a22.74,22.74 0 0 0 1.93,9.59a17.73,17.73 0 0 0 5.57,6.86a43.49,43.49 0 0 0 7.63,4.62a75.1,75.1 0 0 0 9.34,3.5l0.83,0.26l0,42.13l-1.21,0a28.55,28.55 0 0 1 -11.79,-3.08a29.54,29.54 0 0 1 -9.83,-7.92l-3.39,2.64a32.44,32.44 0 0 0 25.1,12.06l1.15,0l-0.03,9.49zm2.9,-13.09l0,-41.63l1.54,0.49c13.31,4.29 20,11.23 20,20.62c0,6.48 -2,11.51 -6.08,14.94a23.34,23.34 0 0 1 -14.27,5.48l-1.19,0.1zm2.36,-38.34l0,35.83a20.72,20.72 0 0 0 11.63,-4.83c3.53,-3 5.25,-7.3 5.25,-13.14c0,-8.06 -5.53,-13.91 -16.88,-17.9l0,0.04zm-5.27,-9l-1.5,-0.42c-12.55,-3.58 -18.91,-10.21 -18.91,-19.71a18.11,18.11 0 0 1 5.57,-13.7a20.67,20.67 0 0 1 13.6,-5.66l1.25,-0.17l-0.01,39.66zm-2.36,-37a18.16,18.16 0 0 0 -10.86,4.91c-3.25,3.09 -4.83,7 -4.83,12c0,8.07 5.13,13.64 15.69,17l0,-33.91z" fill="#ba890f" id="svg_106"/>
  <polygon fill="#f7be1b" id="svg_107" points="1035.98 542.79 1020.25 542.79 1020.25 527.07 1013.6 527.07 1013.6 542.79 997.88 542.79 997.88 549.44 1013.6 549.44 1013.6 565.16 1020.25 565.16 1020.25 549.44 1035.98 549.44 1035.98 542.79"/>
  <path d="m1021.43,566.34l-9,0l0,-15.72l-15.73,0l0,-9l15.73,0l0,-15.73l9,0l0,15.72l15.72,0l0,9l-15.72,0l0,15.73zm-6.65,-2.35l4.29,0l0,-15.73l15.73,0l0,-4.26l-15.73,0l0,-15.75l-4.29,0l0,15.75l-15.72,0l0,4.29l15.72,0l0,15.7z" fill="#ba890f" id="svg_108"/>
 </g>
</svg>